{
    "asset" : {
        "generator" : "Khronos glTF Blender I/O v3.4.49",
        "version" : "2.0"
    },
    "extensionsUsed" : [
        "KHR_materials_specular",
        "KHR_materials_ior"
    ],
    "scene" : 0,
    "scenes" : [
        {
            "name" : "Scene",
            "nodes" : [
                0
            ]
        }
    ],
    "nodes" : [
        {
            "mesh" : 0,
            "name" : "Cube.001",
            "translation" : [
                0,
                33.93501281738281,
                0
            ]
        }
    ],
    "materials" : [
        {
            "doubleSided" : true,
            "emissiveFactor" : [
                0.1300759237976834,
                0.11318612801116679,
                0.012601480077668592
            ],
            "name" : "Material.002",
            "pbrMetallicRoughness" : {
                "baseColorTexture" : {
                    "index" : 0
                },
                "metallicFactor" : 0,
                "metallicRoughnessTexture" : {
                    "index" : 1
                }
            }
        },
        {
            "doubleSided" : true,
            "extensions" : {
                "KHR_materials_specular" : {
                    "specularColorFactor" : [
                        0.20479908340603953,
                        0.20479908340603953,
                        0.20479908340603953
                    ]
                },
                "KHR_materials_ior" : {
                    "ior" : 1.4500000476837158
                }
            },
            "name" : "Material.001",
            "normalTexture" : {
                "index" : 2
            },
            "pbrMetallicRoughness" : {
                "baseColorTexture" : {
                    "index" : 3
                },
                "metallicRoughnessTexture" : {
                    "index" : 4
                }
            }
        }
    ],
    "meshes" : [
        {
            "name" : "Cube.002",
            "primitives" : [
                {
                    "attributes" : {
                        "POSITION" : 0,
                        "TEXCOORD_0" : 1,
                        "NORMAL" : 2
                    },
                    "indices" : 3,
                    "material" : 0
                },
                {
                    "attributes" : {
                        "POSITION" : 4,
                        "TEXCOORD_0" : 5,
                        "NORMAL" : 6
                    },
                    "indices" : 7,
                    "material" : 1
                }
            ]
        }
    ],
    "textures" : [
        {
            "sampler" : 0,
            "source" : 0
        },
        {
            "sampler" : 0,
            "source" : 1
        },
        {
            "sampler" : 0,
            "source" : 2
        },
        {
            "sampler" : 0,
            "source" : 0
        },
        {
            "sampler" : 0,
            "source" : 3
        }
    ],
    "images" : [
        {
            "bufferView" : 4,
            "mimeType" : "image/png",
            "name" : "TexturesCom_Metal_SteelRough2_512_albedo"
        },
        {
            "bufferView" : 5,
            "mimeType" : "image/png",
            "name" : "TexturesCom_Metal_SteelRough2_512_metallic"
        },
        {
            "bufferView" : 10,
            "mimeType" : "image/png",
            "name" : "TexturesCom_Metal_SteelRough2_512_normal"
        },
        {
            "bufferView" : 11,
            "mimeType" : "image/png",
            "name" : "TexturesCom_Metal_SteelRough2_512_metallic-TexturesCom_Metal_SteelRough2_512_roughness"
        }
    ],
    "accessors" : [
        {
            "bufferView" : 0,
            "componentType" : 5126,
            "count" : 56,
            "max" : [
                2.0742368698120117,
                1.9976290464401245,
                1.7701375484466553
            ],
            "min" : [
                -2.0742368698120117,
                -1.2737247943878174,
                -1.7701375484466553
            ],
            "type" : "VEC3"
        },
        {
            "bufferView" : 1,
            "componentType" : 5126,
            "count" : 56,
            "type" : "VEC2"
        },
        {
            "bufferView" : 2,
            "componentType" : 5126,
            "count" : 56,
            "type" : "VEC3"
        },
        {
            "bufferView" : 3,
            "componentType" : 5123,
            "count" : 144,
            "type" : "SCALAR"
        },
        {
            "bufferView" : 6,
            "componentType" : 5126,
            "count" : 1100,
            "max" : [
                2.997373104095459,
                4.217571258544922,
                1.986294150352478
            ],
            "min" : [
                -2.9959158897399902,
                -32.92076110839844,
                -1.9900870323181152
            ],
            "type" : "VEC3"
        },
        {
            "bufferView" : 7,
            "componentType" : 5126,
            "count" : 1100,
            "type" : "VEC2"
        },
        {
            "bufferView" : 8,
            "componentType" : 5126,
            "count" : 1100,
            "type" : "VEC3"
        },
        {
            "bufferView" : 9,
            "componentType" : 5123,
            "count" : 4128,
            "type" : "SCALAR"
        }
    ],
    "bufferViews" : [
        {
            "buffer" : 0,
            "byteLength" : 672,
            "byteOffset" : 0,
            "target" : 34962
        },
        {
            "buffer" : 0,
            "byteLength" : 448,
            "byteOffset" : 672,
            "target" : 34962
        },
        {
            "buffer" : 0,
            "byteLength" : 672,
            "byteOffset" : 1120,
            "target" : 34962
        },
        {
            "buffer" : 0,
            "byteLength" : 288,
            "byteOffset" : 1792,
            "target" : 34963
        },
        {
            "buffer" : 0,
            "byteLength" : 385290,
            "byteOffset" : 2080
        },
        {
            "buffer" : 0,
            "byteLength" : 4427,
            "byteOffset" : 387372
        },
        {
            "buffer" : 0,
            "byteLength" : 13200,
            "byteOffset" : 391800,
            "target" : 34962
        },
        {
            "buffer" : 0,
            "byteLength" : 8800,
            "byteOffset" : 405000,
            "target" : 34962
        },
        {
            "buffer" : 0,
            "byteLength" : 13200,
            "byteOffset" : 413800,
            "target" : 34962
        },
        {
            "buffer" : 0,
            "byteLength" : 8256,
            "byteOffset" : 427000,
            "target" : 34963
        },
        {
            "buffer" : 0,
            "byteLength" : 1366473,
            "byteOffset" : 435256
        },
        {
            "buffer" : 0,
            "byteLength" : 4427,
            "byteOffset" : 1801732
        }
    ],
    "samplers" : [
        {
            "magFilter" : 9729,
            "minFilter" : 9987
        }
    ],
    "buffers" : [
        {
            "byteLength" : 1806160,
            "uri" : "data:application/octet-stream;base64,"
        }
    ]
}
