{
    "asset" : {
        "generator" : "Khronos glTF Blender I/O v3.4.49",
        "version" : "2.0"
    },
    "extensionsUsed" : [
        "KHR_materials_specular",
        "KHR_materials_ior"
    ],
    "scene" : 0,
    "scenes" : [
        {
            "name" : "Scene",
            "nodes" : [
                0
            ]
        }
    ],
    "nodes" : [
        {
            "mesh" : 0,
            "name" : "Cube",
            "translation" : [
                0,
                14.225715637207031,
                0
            ]
        }
    ],
    "materials" : [
        {
            "doubleSided" : true,
            "extensions" : {
                "KHR_materials_specular" : {
                    "specularColorFactor" : [
                        0.12934675278878044,
                        0.12934675278878044,
                        0.12934675278878044
                    ]
                },
                "KHR_materials_ior" : {
                    "ior" : 1.4500000476837158
                }
            },
            "name" : "Material.004",
            "normalTexture" : {
                "index" : 0
            },
            "pbrMetallicRoughness" : {
                "baseColorTexture" : {
                    "index" : 1
                },
                "metallicFactor" : 0.2454545497894287,
                "metallicRoughnessTexture" : {
                    "index" : 2
                }
            }
        },
        {
            "doubleSided" : true,
            "extensions" : {
                "KHR_materials_specular" : {
                    "specularColorFactor" : [
                        0.24791463527764945,
                        0.24791463527764945,
                        0.24791463527764945
                    ]
                },
                "KHR_materials_ior" : {
                    "ior" : 1.4500000476837158
                }
            },
            "name" : "Material.001",
            "normalTexture" : {
                "index" : 3
            },
            "pbrMetallicRoughness" : {
                "baseColorTexture" : {
                    "index" : 4
                },
                "metallicFactor" : 0,
                "metallicRoughnessTexture" : {
                    "index" : 5
                }
            }
        },
        {
            "doubleSided" : true,
            "extensions" : {
                "KHR_materials_specular" : {
                    "specularColorFactor" : [
                        0.118567882488869,
                        0.118567882488869,
                        0.118567882488869
                    ]
                },
                "KHR_materials_ior" : {
                    "ior" : 1.4500000476837158
                }
            },
            "name" : "Material.002",
            "normalTexture" : {
                "index" : 6
            },
            "pbrMetallicRoughness" : {
                "baseColorTexture" : {
                    "index" : 7
                },
                "metallicFactor" : 0,
                "metallicRoughnessTexture" : {
                    "index" : 8
                }
            }
        }
    ],
    "meshes" : [
        {
            "name" : "Cube.001",
            "primitives" : [
                {
                    "attributes" : {
                        "POSITION" : 0,
                        "TEXCOORD_0" : 1,
                        "NORMAL" : 2
                    },
                    "indices" : 3,
                    "material" : 0
                },
                {
                    "attributes" : {
                        "POSITION" : 4,
                        "TEXCOORD_0" : 5,
                        "NORMAL" : 6
                    },
                    "indices" : 7,
                    "material" : 1
                },
                {
                    "attributes" : {
                        "POSITION" : 8,
                        "TEXCOORD_0" : 9,
                        "NORMAL" : 10
                    },
                    "indices" : 11,
                    "material" : 2
                }
            ]
        }
    ],
    "textures" : [
        {
            "sampler" : 0,
            "source" : 0
        },
        {
            "sampler" : 0,
            "source" : 1
        },
        {
            "sampler" : 0,
            "source" : 2
        },
        {
            "sampler" : 0,
            "source" : 3
        },
        {
            "sampler" : 0,
            "source" : 4
        },
        {
            "sampler" : 0,
            "source" : 5
        },
        {
            "sampler" : 0,
            "source" : 6
        },
        {
            "sampler" : 0,
            "source" : 7
        },
        {
            "sampler" : 0,
            "source" : 8
        }
    ],
    "images" : [
        {
            "bufferView" : 4,
            "mimeType" : "image/png",
            "name" : "TexturesCom_MetalSeawall_HeavyRust_512_normal"
        },
        {
            "bufferView" : 5,
            "mimeType" : "image/png",
            "name" : "TexturesCom_MetalSeawall_HeavyRust_512_albedo"
        },
        {
            "bufferView" : 6,
            "mimeType" : "image/png",
            "name" : "TexturesCom_MetalSeawall_HeavyRust_512_roughness"
        },
        {
            "bufferView" : 11,
            "mimeType" : "image/png",
            "name" : "TexturesCom_WeatheredBrickWall_5x2.5_512_normal"
        },
        {
            "bufferView" : 12,
            "mimeType" : "image/png",
            "name" : "TexturesCom_WeatheredBrickWall_5x2.5_512_albedo"
        },
        {
            "bufferView" : 13,
            "mimeType" : "image/png",
            "name" : "TexturesCom_WeatheredBrickWall_5x2.5_512_roughness"
        },
        {
            "bufferView" : 18,
            "mimeType" : "image/png",
            "name" : "TexturesCom_Metal_PlateBare_1K_height"
        },
        {
            "bufferView" : 19,
            "mimeType" : "image/png",
            "name" : "TexturesCom_Metal_PlateBare_1K_albedo"
        },
        {
            "bufferView" : 20,
            "mimeType" : "image/png",
            "name" : "TexturesCom_Metal_PlateBare_1K_roughness"
        }
    ],
    "accessors" : [
        {
            "bufferView" : 0,
            "componentType" : 5126,
            "count" : 649,
            "max" : [
                12.775620460510254,
                11.013660430908203,
                21.72301483154297
            ],
            "min" : [
                -12.775620460510254,
                -11.014513969421387,
                -21.72301483154297
            ],
            "type" : "VEC3"
        },
        {
            "bufferView" : 1,
            "componentType" : 5126,
            "count" : 649,
            "type" : "VEC2"
        },
        {
            "bufferView" : 2,
            "componentType" : 5126,
            "count" : 649,
            "type" : "VEC3"
        },
        {
            "bufferView" : 3,
            "componentType" : 5123,
            "count" : 1320,
            "type" : "SCALAR"
        },
        {
            "bufferView" : 7,
            "componentType" : 5126,
            "count" : 351,
            "max" : [
                12.508963584899902,
                9.870619773864746,
                21.269607543945312
            ],
            "min" : [
                -12.508963584899902,
                -9.283315658569336,
                -21.269607543945312
            ],
            "type" : "VEC3"
        },
        {
            "bufferView" : 8,
            "componentType" : 5126,
            "count" : 351,
            "type" : "VEC2"
        },
        {
            "bufferView" : 9,
            "componentType" : 5126,
            "count" : 351,
            "type" : "VEC3"
        },
        {
            "bufferView" : 10,
            "componentType" : 5123,
            "count" : 870,
            "type" : "SCALAR"
        },
        {
            "bufferView" : 14,
            "componentType" : 5126,
            "count" : 73,
            "max" : [
                12.775620460510254,
                -9.136266708374023,
                21.72301483154297
            ],
            "min" : [
                -12.775620460510254,
                -11.014513969421387,
                -21.72301483154297
            ],
            "type" : "VEC3"
        },
        {
            "bufferView" : 15,
            "componentType" : 5126,
            "count" : 73,
            "type" : "VEC2"
        },
        {
            "bufferView" : 16,
            "componentType" : 5126,
            "count" : 73,
            "type" : "VEC3"
        },
        {
            "bufferView" : 17,
            "componentType" : 5123,
            "count" : 216,
            "type" : "SCALAR"
        }
    ],
    "bufferViews" : [
        {
            "buffer" : 0,
            "byteLength" : 7788,
            "byteOffset" : 0,
            "target" : 34962
        },
        {
            "buffer" : 0,
            "byteLength" : 5192,
            "byteOffset" : 7788,
            "target" : 34962
        },
        {
            "buffer" : 0,
            "byteLength" : 7788,
            "byteOffset" : 12980,
            "target" : 34962
        },
        {
            "buffer" : 0,
            "byteLength" : 2640,
            "byteOffset" : 20768,
            "target" : 34963
        },
        {
            "buffer" : 0,
            "byteLength" : 353637,
            "byteOffset" : 23408
        },
        {
            "buffer" : 0,
            "byteLength" : 104525,
            "byteOffset" : 377048
        },
        {
            "buffer" : 0,
            "byteLength" : 4427,
            "byteOffset" : 481576
        },
        {
            "buffer" : 0,
            "byteLength" : 4212,
            "byteOffset" : 486004,
            "target" : 34962
        },
        {
            "buffer" : 0,
            "byteLength" : 2808,
            "byteOffset" : 490216,
            "target" : 34962
        },
        {
            "buffer" : 0,
            "byteLength" : 4212,
            "byteOffset" : 493024,
            "target" : 34962
        },
        {
            "buffer" : 0,
            "byteLength" : 1740,
            "byteOffset" : 497236,
            "target" : 34963
        },
        {
            "buffer" : 0,
            "byteLength" : 302883,
            "byteOffset" : 498976
        },
        {
            "buffer" : 0,
            "byteLength" : 356831,
            "byteOffset" : 801860
        },
        {
            "buffer" : 0,
            "byteLength" : 2267,
            "byteOffset" : 1158692
        },
        {
            "buffer" : 0,
            "byteLength" : 876,
            "byteOffset" : 1160960,
            "target" : 34962
        },
        {
            "buffer" : 0,
            "byteLength" : 584,
            "byteOffset" : 1161836,
            "target" : 34962
        },
        {
            "buffer" : 0,
            "byteLength" : 876,
            "byteOffset" : 1162420,
            "target" : 34962
        },
        {
            "buffer" : 0,
            "byteLength" : 432,
            "byteOffset" : 1163296,
            "target" : 34963
        },
        {
            "buffer" : 0,
            "byteLength" : 1082844,
            "byteOffset" : 1163728
        },
        {
            "buffer" : 0,
            "byteLength" : 114599,
            "byteOffset" : 2246572
        },
        {
            "buffer" : 0,
            "byteLength" : 15799,
            "byteOffset" : 2361172
        }
    ],
    "samplers" : [
        {
            "magFilter" : 9729,
            "minFilter" : 9987
        }
    ],
    "buffers" : [
        {
            "byteLength" : 2376972,
            "uri" : "data:application/octet-stream;base64,"
        }
    ]
}
